<svg width="256" height="256" viewBox="0 0 256 256" fill="none" xmlns="http://www.w3.org/2000/svg">
  <path d="M0 16C0 7.16344 7.16344 0 16 0H44C52.8366 0 60 7.16344 60 16V249.333C60 253.015 57.0152 256 53.3333 256C23.8781 256 0 232.122 0 202.667V16Z" fill="#1a1717"/>
  <path d="M96 15C96 6.71573 102.716 0 111 0C119.284 0 126 6.71573 126 15V70C126 75.5229 121.523 80 116 80C104.954 80 96 71.0457 96 60V15Z" fill="#1a1717"/>
  <path d="M96 60C96 54.4772 100.477 50 106 50H161C169.284 50 176 56.7157 176 65C176 73.2843 169.284 80 161 80H116C104.954 80 96 71.0457 96 60Z" fill="#1a1717"/>
  <path d="M176 95C176 86.7157 182.716 80 191 80C199.284 80 206 86.7157 206 95V150C206 155.523 201.523 160 196 160C184.954 160 176 151.046 176 140V95Z" fill="#1a1717"/>
  <path d="M176 140C176 134.477 180.477 130 186 130H241C249.284 130 256 136.716 256 145C256 153.284 249.284 160 241 160H196C184.954 160 176 151.046 176 140Z" fill="#1a1717"/>
  <path d="M0 202.667C0 198.985 2.98477 196 6.66667 196H240C248.837 196 256 203.163 256 212V240C256 248.837 248.837 256 240 256H53.3333C23.8781 256 0 232.122 0 202.667Z" fill="#1a1717"/>
</svg>
